<svg xmlns="http://www.w3.org/2000/svg" xmlns:xlink="http://www.w3.org/1999/xlink" viewBox="0 0 610.95 283.01"><defs>
<style>.cls-1,.cls-4,.cls-5{fill:none;}.cls-2{fill:#b1dfde;}.cls-3{fill:#584393;}.cls-4,.cls-5{stroke:#fff;stroke-miterlimit:10;}.cls-4{stroke-width:10px;}.cls-5{stroke-width:4px;}.cls-6{clip-path:url(#clip-path);}.cls-7{fill:#fff;}</style>
<clipPath id="clip-path"><path class="cls-1" d="M259,122.49a45,45,0,0,0,90,0h44.67v98.9H218.06v-98.9Z"/></clipPath></defs>
<g id="Layer_2" data-name="Layer 2"><g id="Layer_1-2" data-name="Layer 1">
<rect class="cls-2" width="610.95" height="283.01" rx="9.7"/><rect class="cls-3" x="19.76" y="22.78" width="570.89" height="239" rx="9.7"/><path class="cls-4" d="M182.26,218.28a15,15,0,0,1-15-15V76.62a15,15,0,0,1,15-15"/><path class="cls-4" d="M428.69,61.61a15,15,0,0,1,15,15V203.27a15,15,0,0,1-15,15"/><circle class="cls-5" cx="303.94" cy="122.49" r="40.47"/><g class="cls-6"><rect class="cls-7" x="220.34" y="122.49" width="16.55" height="94.79"/><rect class="cls-7" x="270" y="122.49" width="16.55" height="94.79"/><rect class="cls-7" x="302.24" y="122.49" width="16.55" height="94.79"/><rect class="cls-7" x="351.38" y="122.49" width="16.55" height="94.79"/><rect class="cls-7" x="373.72" y="122.49" width="6.12" height="94.79"/><rect class="cls-7" x="383.44" y="122.49" width="6.12" height="94.79"/><rect class="cls-7" x="339.82" y="122.49" width="6.12" height="94.79"/><rect class="cls-7" x="323.79" y="122.49" width="6.12" height="94.79"/><rect class="cls-7" x="291.34" y="122.49" width="6.12" height="94.79"/><rect class="cls-7" x="252.83" y="122.49" width="6.12" height="94.79"/><rect class="cls-7" x="241.8" y="122.49" width="6.12" height="94.79"/></g><path class="cls-7" d="M307.69,95.72a11,11,0,0,1,1.09.54,3.24,3.24,0,0,1,1.49,2.85q0,2.39,0,4.77a3.28,3.28,0,0,1-1.85,3,.67.67,0,0,0-.3.48c0,.81,0,1.62,0,2.44a1.19,1.19,0,0,0,.24.62c1.62,2.18,3.23,4.36,4.88,6.51a6.47,6.47,0,0,1,1.38,4.12c0,2.74,0,5.49,0,8.24V130c.71-.41,1.33-.78,2-1.12a35.84,35.84,0,0,1,3.72-2,8.66,8.66,0,0,1,7.32,15.65q-6.5,3.81-13,7.52a8.59,8.59,0,0,1-11.61-2.7.72.72,0,0,0-.71-.34q-8.36,0-16.71,0A5.41,5.41,0,0,1,280,142.7a6.45,6.45,0,0,1-.13-1.46c0-6.75,0-13.51,0-20.27a6.32,6.32,0,0,1,1.33-4c1.64-2.14,3.25-4.3,4.84-6.46a1.91,1.91,0,0,0,.33-1c.05-.71,0-1.41,0-2.12a.53.53,0,0,0-.36-.57,3,3,0,0,1-1.78-2.71c0-1.79-.05-3.58,0-5.37a3.11,3.11,0,0,1,2.31-2.94l.29-.13Zm4.73,26.71H282.11v15.88l.25,0q9.94,0,19.89,0a.83.83,0,0,0,.57-.35,8.33,8.33,0,0,1,2.61-2.64q3.22-1.92,6.5-3.79a.83.83,0,0,0,.5-.84c0-2,0-4,0-6Zm-23.84-15.19c0,1,0,1.86,0,2.76a2.17,2.17,0,0,1-.48,1.45c-1.74,2.31-3.49,4.61-5.2,6.94a17,17,0,0,0-1,1.82h30.43a3.09,3.09,0,0,0-.72-1.73c-1.63-2.18-3.28-4.36-4.9-6.55a.81.81,0,0,0-.75-.39c-1.38,0-2.75,0-4.13,0-1.86,0-3.72,0-5.58,0a1.08,1.08,0,0,1-1.17-1.32,1.09,1.09,0,0,1,1.22-.84c3,0,6,0,8.95,0h.59v-2.15Zm24.23,26.3c-2.09,1.22-4.18,2.36-6.2,3.63a6.47,6.47,0,0,0,6.49,11.18c1.93-1,3.8-2.16,5.69-3.25.17-.09.33-.2.52-.31Zm-15.54-28.49h9.39c1,0,1.41-.39,1.42-1.41,0-1.46,0-2.92,0-4.39,0-1-.42-1.36-1.35-1.36q-9.5,0-19,0c-.92,0-1.32.41-1.33,1.32v4.34c0,1.15.36,1.5,1.53,1.5Zm23.94,38.66c1.9-1.1,3.78-2.13,5.6-3.27a6.41,6.41,0,0,0,2.26-8.5,6.35,6.35,0,0,0-8.24-2.91c-2.1,1-4.07,2.24-6.13,3.4C316.89,136.22,319,139.94,321.21,143.71ZM282,140.53a11.75,11.75,0,0,0,.12,1.73,3.26,3.26,0,0,0,3.46,2.59h15.67l.34,0v-4.3Z"/><path class="cls-7" d="M298.34,129.67c1.13,0,2.19,0,3.26,0a1.07,1.07,0,0,1,1.06,1,1.09,1.09,0,0,1-.8,1.14,2.39,2.39,0,0,1-.6.05h-2.92v2.47c0,.22,0,.44,0,.65a1.13,1.13,0,0,1-1.12,1.21,1.08,1.08,0,0,1-1.06-1.19c0-.86,0-1.73,0-2.6,0-.16,0-.32,0-.54H293a1.07,1.07,0,0,1-1.18-1,1.05,1.05,0,0,1,1.13-1.21c1,0,2.06,0,3.18,0,0-.55,0-1.07,0-1.58s0-1.2,0-1.79a1.05,1.05,0,0,1,2.08-.12,8.47,8.47,0,0,1,.07,1.34C298.35,128.21,298.34,128.89,298.34,129.67Z"/><path class="cls-7" d="M290.75,110.45a1.07,1.07,0,0,1,1.06-1.06,1.08,1.08,0,1,1,0,2.16A1.07,1.07,0,0,1,290.75,110.45Z"/></g></g></svg>